<svg xmlns="http://www.w3.org/2000/svg" xmlns:xlink="http://www.w3.org/1999/xlink" viewBox="0 0 77.04 1000.75"><defs><clipPath id="a" transform="translate(-36.84 -21.96)"><circle cx="74.46" cy="59.55" r="14.69" style="fill:none"/></clipPath></defs><circle cx="37.62" cy="37.58" r="26.51" style="stroke:#fff;stroke-miterlimit:10"/><line x1="37.58" x2="37.58" y2="75.16" style="fill:none;stroke:#fff;stroke-miterlimit:10"/><line y1="37.58" x2="77.04" y2="37.58" style="fill:none;stroke:#fff;stroke-miterlimit:10"/><g style="clip-path:url(#a)"><circle cx="37.62" cy="37.58" r="14.69" style="fill:#fff"/><line x1="37.62" y1="1.63" x2="37.62" y2="73.53" style="fill:none;stroke:#000;stroke-miterlimit:10"/><line x1="1.68" y1="37.58" x2="75.37" y2="37.58" style="fill:none;stroke:#000;stroke-miterlimit:10"/></g><rect x="9.03" y="102.43" width="53.5" height="53.5" style="fill:#009fe3;stroke:#009fe3;stroke-miterlimit:10"/><rect x="9.03" y="155.93" width="53.5" height="53.5" style="fill:#33b2e9;stroke:#009fe3;stroke-miterlimit:10"/><rect x="9.03" y="209.44" width="53.5" height="53.5" style="fill:#99d9f4;stroke:#009fe3;stroke-miterlimit:10"/><rect x="9.03" y="262.94" width="53.5" height="53.5" style="fill:#ccecf9;stroke:#009fe3;stroke-miterlimit:10"/><rect x="9.03" y="330.37" width="53.5" height="53.5" style="fill:#e6007e;stroke:#e6007e;stroke-miterlimit:10"/><rect x="9.03" y="383.87" width="53.5" height="53.5" style="fill:#eb3398;stroke:#e6007e;stroke-miterlimit:10"/><rect x="9.03" y="437.37" width="53.5" height="53.5" style="fill:#f066b2;stroke:#e6007e;stroke-miterlimit:10"/><rect x="9.03" y="490.88" width="53.5" height="53.5" style="fill:#f599cb;stroke:#e6007e;stroke-miterlimit:10"/><rect x="9.03" y="558.3" width="53.5" height="53.5" style="fill:#ffed00;stroke:#ffed00;stroke-miterlimit:10"/><rect x="9.03" y="611.81" width="53.5" height="53.5" style="fill:#fff133;stroke:#ffed00;stroke-miterlimit:10"/><rect x="9.03" y="665.31" width="53.5" height="53.5" style="fill:#fff466;stroke:#ffed00;stroke-miterlimit:10"/><rect x="9.03" y="718.81" width="53.5" height="53.5" style="fill:#fff899;stroke:#ffed00;stroke-miterlimit:10"/><rect x="9.03" y="786.24" width="53.5" height="53.5" style="stroke:#000;stroke-miterlimit:10"/><rect x="9.03" y="839.74" width="53.5" height="53.5" style="fill:#333;stroke:#000;stroke-miterlimit:10"/><rect x="9.03" y="893.25" width="53.5" height="53.5" style="fill:#666;stroke:#000;stroke-miterlimit:10"/><rect x="9.03" y="946.75" width="53.5" height="53.5" style="fill:#999;stroke:#000;stroke-miterlimit:10"/></svg>